<svg xmlns="http://www.w3.org/2000/svg" xmlns:xlink="http://www.w3.org/1999/xlink" version="1.1" id="Capa_1" x="0px" y="0px" viewBox="0 0 512 280" style="enable-background:new 0 0 512 280;" xml:space="preserve">
<style type="text/css">
	.st0{fill:#007A37;}
</style>
<g>
	<g>
		<g>
			<g>
				<path class="st0" d="M198.6,207v-94.4h23.9c6.3,0,12,1.4,17.1,4.4c4.3,2.5,7.5,6.4,9.3,11.7c1,2.8,1.5,6.1,1.5,10      c0,6.3-1.9,11.4-5.7,15.2c-1.6,1.6-3.4,2.8-5.6,3.7c3.6,1.2,6.6,3.6,9,7.2c1.6,2.4,2.8,5.5,3.7,9.4c0.4,2,0.6,4.2,0.6,6.6      c0,6-1.3,11.1-3.8,15.2c-2,3.2-4.8,5.9-8.3,7.8c-4.1,2.2-8.1,3.3-12.1,3.3L198.6,207L198.6,207z M215.8,151.2h6.7      c4.9,0,8.3-2.1,10-6.5c0.6-1.6,0.9-3.6,0.9-6c0-3.9-1.1-6.9-3.2-8.9c-2-1.9-4.5-2.8-7.7-2.8h-6.7V151.2z M215.8,193h6.7      c5.5,0,9.2-2.5,11.2-7.5c0.8-1.7,1.1-3.7,1.1-5.9c0-5.3-1.1-9.1-3.4-11.5c-2-2.2-5-3.3-8.9-3.3h-6.7V193z"/>
			</g>
		</g>
		<g>
			<g>
				<path class="st0" d="M306.2,207h-16v-94.4h16V207z"/>
			</g>
		</g>
		<g>
			<g>
				<path class="st0" d="M369.6,111.5c7.1,0,13,2.2,18,6.6c4.9,4.4,7.4,9.7,7.4,16v51.5c0,6.3-2.5,11.6-7.5,16      c-4.9,4.4-11,6.6-18,6.6c-7.1,0-13-2.2-18-6.6c-4.9-4.4-7.4-9.7-7.4-16V134c0-6.3,2.5-11.6,7.5-16      C356.7,113.6,362.6,111.5,369.6,111.5z M378.3,133.7c0-2.3-0.9-4.2-2.6-5.8c-1.8-1.6-3.9-2.4-6.5-2.4c-2.6,0-4.7,0.8-6.6,2.4      c-1.8,1.6-2.7,3.5-2.7,5.8v51.7c0,2.3,0.9,4.2,2.7,5.8c1.8,1.6,4,2.4,6.6,2.4c2.6,0,4.7-0.8,6.5-2.4c1.8-1.6,2.6-3.5,2.6-5.8      V133.7z"/>
			</g>
		</g>
	</g>
	<g>
		<g>
			<g>
				<g>
					<g>
						<path class="st0" d="M93.2,74.5c-0.5-9.2,3-18.3,8.4-25.7c5.5-7.4,12.9-13.1,20.9-17.8c4.8,10.1,9.6,20.7,9.5,31.9        c-0.2,9.7-8,30.2-17.7,34.7c-0.3,0.2-0.6,0.3-0.9,0.3c-1-10.7,0.3-21.7,3.8-31.9c0.5-1.4-0.3-3-1.7-3.5        c-1.4-0.5-3,0.3-3.5,1.7c-3.7,10.9-5.1,22.5-4.1,33.9C99.5,95.6,93.6,81.7,93.2,74.5z"/>
					</g>
				</g>
			</g>
		</g>
		<g>
			<g>
				<g>
					<g>
						<path class="st0" d="M75.6,85.7c9.4,3.4,26.7,17.4,27.6,27.6c0.1,1.2,0,2.3-0.3,3.2c-12.9-3.2-25-9.9-34.5-19.1        c-1.1-1-2.8-1-3.9,0.1c-1,1.1-1,2.8,0.1,3.9c9.7,9.3,21.8,16.2,34.7,19.8c-6.5,4.7-19.2,4.9-25.5,3.1        c-9.1-2.6-16.8-8.9-22.1-16.3c-5.3-7.4-8.3-16-10.3-24.7C52.9,82.5,64.8,81.8,75.6,85.7z"/>
					</g>
				</g>
			</g>
		</g>
	</g>
	<g>
		<g>
			<path class="st0" d="M435.9,249H168.1c-11.7,0-22.4-6.4-28.9-17.2l-36.6-50.1c-0.1-0.2-0.3-0.3-0.3-0.5c-7.7-13-7.7-29.9,0-42.9     c0.1-0.2,0.2-0.3,0.3-0.5l36.5-50.1c6.5-10.8,17.3-17.2,28.9-17.2h267.7c9.7,0,18.1,2.8,24.3,8.1c6.9,5.9,10.6,14.5,10.6,24.9     V210C470.7,231.5,455.1,249,435.9,249z M112.8,174.7l36.5,50.1c0.1,0.2,0.3,0.3,0.3,0.5c4.3,7.2,11.2,11.4,18.5,11.4h267.7     c12.4,0,22.5-11.9,22.5-26.7V103.6c0-18.6-15.8-20.7-22.5-20.7H168.1c-7.3,0-14.2,4.3-18.5,11.4c-0.1,0.2-0.2,0.3-0.3,0.5     l-36.5,50.1C107.7,153.8,107.7,165.8,112.8,174.7z"/>
		</g>
	</g>
</g>
</svg>
