<svg xmlns="http://www.w3.org/2000/svg" viewBox="0 0 449.21 170.11" fill="white"><path d="M398.64,134.12c-4.67.33-9.35,1.09-14,.88a14,14,0,0,1-11.79-6.92c-.93-1.55-1.88-1.11-3.11-.45-5.29,2.83-10.88,4.72-16.94,4.25a23.22,23.22,0,0,1-8.4-2,15.81,15.81,0,0,1-5.37-5.21c-1-1.46-1.46-1.82-3-.88a29.49,29.49,0,0,1-19.3,4.47c-5.07-.6-8.79-2.82-10.53-7.83a7,7,0,0,0-.51-.94c-10.21,6.88-20.47,10-30.87,1.13-3.68,2.26-7.32,4.92-11.3,6.84a16.33,16.33,0,0,1-12.87.79c-4.35-1.54-6.56-4.82-7.6-9.14-.55-2.27-.23-4.88-.12-7.18.2-4,.55-8.09.93-12.12.78-8.15,1.72-16.29,2.69-24.42.2-1.66.44-3.33.56-5,0,.45-.9,1.33-1.15,1.73a59.75,59.75,0,0,0-6.87,16.5c-1.64,6.14-8.12,33.21-9.91,40.56-1.28,5.21-8.36,6.91-13.12,3.26a11.48,11.48,0,0,1-4.89-9.43c.17-7.06,3.42-38.18,4.41-46.69,0,.15-4.57,7.36-5.94,10.62-4.14,9.92-10.29,40.09-11.21,44.66s-3,6.84-6.38,7.33c-4.89.71-8.53-1-10.67-5.11-.3-.56-.58-1.13-1-2-1.1,1-2,1.83-2.89,2.64-5.58,5.05-11.9,8.12-19.64,7.72a11.75,11.75,0,0,1-8.62-3.89c-1.49-1.71-2.37-1.29-3.77,0-4.48,4.16-9.68,6.82-15.93,6.64a15.65,15.65,0,0,1-6-1.32,3.68,3.68,0,0,0-4.29.48,136.63,136.63,0,0,1-29.26,16.5c-11.89,4.81-24.33,6.9-36.91,5.1-19.68-2.81-33.62-13.89-41.71-32.13C5.18,119.67,2.52,105,4.66,90.12,8.64,62.55,22.31,41.44,49,30.48a50.28,50.28,0,0,1,22.43-3.89c11.52.72,19.73,6.64,24.91,16.64A62.07,62.07,0,0,1,102.49,82c-2.13,14-7.35,26.57-16.62,37.3a37.85,37.85,0,0,1-25,13.2c-11.31,1.34-19.78-6-20.62-17.89a46,46,0,0,1,6-25.87A80.12,80.12,0,0,1,73,59.92c1-.67,2.14-2.21,3.61-.39s.08,2.6-1,3.63A105.28,105.28,0,0,0,47.8,104.1c-1.87,5-3.06,10.18-1.67,15.66,2,7.7,6.55,10,13.75,6.52,5.95-2.85,9.91-7.76,13.32-13.15C79.58,103.07,83.81,92,87.08,80.68A127.78,127.78,0,0,0,90.59,63.1c1.12-8,.58-15.92-3.49-23.06-3.89-6.84-9.66-11-18-10-5,.63-9.08,3.1-12.68,6.48-6.53,6.13-10.67,13.83-13.81,22a158.44,158.44,0,0,0-10,71.32c.57,6.52,1.72,13.12,5.35,18.81,6.94,10.88,17.51,13.72,29.51,12.47,17.23-1.8,32.19-9.56,46.59-18.59,4.36-2.74,4.12-2.75,2.83-7.61a37.86,37.86,0,0,1-1.23-9.36,64.43,64.43,0,0,1,9.67-34.88c4.09-6.65,9.71-11.36,17.84-12.31A12.51,12.51,0,0,1,153,81a3.51,3.51,0,0,0,2.85.44c3.85-1.29,13.63-4.91,15.28-5.42-.45,3-7.68,45.73-8.38,50.75a15.49,15.49,0,0,0,.21,5.88c.77,2.93,2.89,3.82,5.83,2.93a22.66,22.66,0,0,0,10-6.76,3.87,3.87,0,0,0,.84-2.24c.61-8,1.08-15.94,1.73-23.9.52-6.22,1.34-12.41,1.84-18.64.22-2.75,1.08-4.55,3.86-5.66,4.68-1.87,9.18-4.18,14.55-6.67-2.53,20.58-6.08,40.37-5.84,60.57.36-1.67.77-3.33,1.08-5,1.43-7.68,2.67-15.41,4.3-23,1.94-9.12,4.37-18.13,9-26.33,2.36-4.16,5.11-8,10.17-9.33s9.45.84,10.68,5.87A29.49,29.49,0,0,1,232,84.47c-1.18,10.25-5.08,39.53-5.45,44,.3.05,6.74-36.83,12.66-50a46.32,46.32,0,0,1,7.46-11.38,10.07,10.07,0,0,1,12.05-2.87c4.14,1.77,5.38,5.62,5.41,9.67a91.65,91.65,0,0,1-1,11.43c-1.08,9-3.36,31.84-2.87,34.16.59,2.85,3,4.07,5.47,2.68a55.92,55.92,0,0,0,7.41-5.38,2.75,2.75,0,0,0,.75-2c-.26-6.88,7.91-37.77,10.21-46.71.27-1.07,1.06-2.55,1.95-2.85,5.49-1.85,11.07-3.42,17.43-5.33-.59,3-1,5.4-1.56,7.81C299,79.8,291.47,112,291.12,116.06c-.38,4.44,2.08,6.47,6.17,4.84a26.47,26.47,0,0,0,8.06-5.55c1-1,6.41-22,9.15-30.41,4.77-14.71,9.65-29.38,14.48-44.06,1.71-5.21,3.36-10.44,5.15-15.62a3.19,3.19,0,0,1,1.77-1.89c5.65-1.33,11.35-2.5,17-3.69.2,0,.45.16,1,.37-1.06,3.38-2.1,6.76-3.18,10.12q-6.83,21.11-13.67,42.21c-4.77,14.71-9.51,29.42-14.36,44.09a5.78,5.78,0,0,0,1.15,6.24c1.68,1.81,3.81,1.27,5.83.63,1-.32,2-.87,3-1.22,3.8-1.35,5.32-4.11,6.47-8,1.82-6.1,26.92-60.85,36.74-82.41a4.41,4.41,0,0,1,4.26-3c4.4-.26,8.76-1,13.14-1.46,1-.1,1.92-.13,3.51-.23-.85,2.13-1.45,3.8-2.18,5.42q-19.86,44-39.76,87.95c-2,4.35.44,8.11,5.08,7.31,3.51-.6,6.84-2.36,10.19-3.75a2.48,2.48,0,0,0,1-1.8c1.19-11.54,6.93-20.88,14.35-29.32,4.91-5.59,10.38-10.61,17.4-13.51,6.38-2.63,12.83-2.92,19,.53a13.71,13.71,0,0,1,4.24,4.36c.88,1.3,1.69,2.1,3.3,2.17,3.82.15,14,1,15.82,1.24-1.78,2.7-20.67,31.18-28.59,43.21-1.62,2.46-3.26,5.21-1.44,8.1,1.73,2.73,4.88,2.38,7.53,2,3.25-.52,6.38-1.7,9.59-2.49a8.59,8.59,0,0,1,2.41.13c-.37.74-.56,1.86-1.16,2.17-8.52,4.41-17.32,6.34-26.59,2.36a12.36,12.36,0,0,1-7.28-7.75C399.52,134.64,398.69,133.87,398.64,134.12Zm-265.36-7.5c.1,7.06,1.38,13.56,6.14,11.37a18.57,18.57,0,0,0,5.16-3.74,5.69,5.69,0,0,0,1.26-3.42c.16-2,3.93-30.05,6-42.08.59-3.35.13-4.59-2.81-6.08-2.24-1.14-4.37-.71-6.18,1.53a17.3,17.3,0,0,0-2.56,4.24,96.34,96.34,0,0,0-6.1,24A108.94,108.94,0,0,0,133.28,126.62Zm253.39-.11c.48,2.76,1.71,4.76,4.09,4.73a20.28,20.28,0,0,0,7.41-1.67c1-.4,17.69-28.54,24.34-38.48,1.83-2.74,1.79-4.19-.22-6.43a4.72,4.72,0,0,0-6.51-.9,33.09,33.09,0,0,0-6.53,5.3,112.41,112.41,0,0,0-18.2,26.68C389.34,119.21,388.12,122.91,386.67,126.51Z"/><path d="M157.82,39.47c-3.84,2.64-6.18,6.44-8.37,10.34-1.78,3.19-3.5,6.42-5.28,9.62s-3.39,3.4-6.65,2.37c-2.37-.75-3.64-3.8-2.71-6.5,1.49-4.32,3.26-8.54,4.9-12.8l1.46-3.84-.64-.39a77.34,77.34,0,0,0-5,6.57c-2.57,4.17-4.88,8.49-7.25,12.78-1.16,2.11-2.27,4.12-5.2,3.8-4.11-.45-6-3.28-4.54-7.59,1.83-5.43,4-10.75,6-16.11.23-.58.72-1.39,1.21-1.5,3-.64,5.93-1.1,9.6-1.75-2.15,5.8-4,10.8-5.86,15.81l.29.15c1.79-2.81,3.32-5.83,5.42-8.37a37.84,37.84,0,0,1,7.05-6.5,5.07,5.07,0,0,1,6.31.33c1.93,1.59,1.85,3.76,1,6a63,63,0,0,0-2.79,8.73,55,55,0,0,1,3.3-5.36c2-2.55,4.12-5,6.33-7.33a7.09,7.09,0,0,1,2.78-1.61c2.2-.76,4.46-1,6.36.73s1.53,3.77.74,5.78c-1.73,4.41-5.78,14.08-5.89,14.56-.7,2.93.52,4.16,3.43,3.39a24,24,0,0,0,2.54-1c2.23-.87,3.09-2.09,2.41-4.76-2.34-9.27,4.66-21.33,13.45-23.59.8-.21,1.81-.58,2.44-.28,3.48,1.69,6.42,0,9.48-1.25.66-.26,1.38-.4,2.74-.79-.4,2.5-3,17.11-3.74,22.37-.35,2.48,1.1,3.45,3.34,2.43a2.7,2.7,0,0,0,1.28-1.78c.91-5.15,1.67-10.34,2.67-15.42,1-5.27,3.62-7.58,8.22-8.75a10.76,10.76,0,0,1,3.06-.52c-1.15,5.29-3.17,15.84-3,15.88,1.13-2.59,2.13-5.23,3.41-7.74a36.89,36.89,0,0,1,4-6.55,13.51,13.51,0,0,1,4.64-3.64c3.65-1.74,6.7.31,6.43,4.31-.16,2.46-1.6,10.06-1.6,10.06s2.23-5.33,3.55-7.89c2-3.86,4.22-7.63,8.67-9.19s7.24,1,6.21,5.48c-1,4.21-3.87,14.66-3.89,15.72s.15,2.53.6,2.67a6.36,6.36,0,0,0,3.25-.31,7.67,7.67,0,0,0,1.7-1c2.49-1.46,2.74-3.87,3.27-6.48,1.19-5.88,2.11-11.82,3.24-17.72a2.43,2.43,0,0,1,1.2-1.47c2.67-1.28,5.4-2.45,8.86-4-.57,3.22-3.86,25.87-3.31,26.06a4.37,4.37,0,0,0,3.2-.57,28.64,28.64,0,0,0,3.43-2.85c.62-.5,1.34-.88,2.57-1.67-2.78,6-11.46,9.87-16.55,8.18a3.11,3.11,0,0,0-3.5.77c-3.54,2.95-7.41,5.06-12.24,4.69-3.22-.24-5.2-1.9-4.81-5a89.81,89.81,0,0,1,1.84-9.18,82.59,82.59,0,0,0,2-8.3c0-.39,0-.92-.41-.95s-.46.22-.6.44c-.78,1.24-3.8,7.06-4.52,8.69-2.1,4.78-3.8,9.74-5.84,14.55-1.06,2.49-3,3.23-5.72,2.65a4.41,4.41,0,0,1-3.56-4.76c.38-2.76,1-5.49,1.66-8.2.67-2.93,2.41-9.8,2.11-10.06a.73.73,0,0,0-.91.1c-1.08.95-3.92,7.42-4.66,9.11-1.85,4.26-3.35,8.67-5,13-1.13,2.94-3.54,4.08-6.53,3.47a6.81,6.81,0,0,0-3.68.35c-3.68,1.47-7.25,3-11.21.75a2.54,2.54,0,0,0-2.17.39C180,60,176,61.35,171.21,59.63c-.71-.25-1.88.36-2.67.84a17.18,17.18,0,0,1-11.9,2.66c-4.37-.68-6.51-4-5-8.18C153.6,49.75,155.76,44.63,157.82,39.47Zm20.07,14.31v.14c.07,1.43.71,3.33,2.44,2.77,1.46-.47,3.32-2,3.62-3.39,1.22-5.67,1.94-11.44,2.74-17.19.12-.85-.12-2.38-.57-2.54a3.75,3.75,0,0,0-3.13.2,7.71,7.71,0,0,0-2.47,3.64,77.69,77.69,0,0,0-1.59,8A42.21,42.21,0,0,0,177.89,53.78Z"/><path d="M292.29,3.82a7.71,7.71,0,0,1,6.37,2.8,8.59,8.59,0,0,0,7.22,3.15c6,0,9.62,5.33,7.7,11a7.9,7.9,0,0,0,.63,6.93c3.37,5.74.84,11.65-5.64,13a7.67,7.67,0,0,0-5.52,4.14c-3,5.42-9.71,6.22-13.79,1.59a8.19,8.19,0,0,0-6.54-2.92c-6.61-.06-10.29-5.38-8.09-11.63.87-2.5.28-4.65-1-6.86-2.55-4.34-1.43-9.87,3-11.45a21.27,21.27,0,0,0,7.56-4.32c1.05-1,1.73-2.31,2.77-3.26A8.6,8.6,0,0,1,291.06,4a4.85,4.85,0,0,1,.55-.09Zm2.64,43.33a5.4,5.4,0,0,0,2.43-.21c2.53-.8,3-2.83,4.4-4.7a8.8,8.8,0,0,1,5.9-3.47c4.8-.72,6.94-5.29,4.48-9.59a9.74,9.74,0,0,1-.72-8.61c1.53-4.3-1.23-8.5-5.82-8.45a10,10,0,0,1-8.24-3.75c-3.07-3.52-7.69-3.07-10,1a10,10,0,0,1-6.9,5.14c-5.35,1.22-7,5.15-4.32,10a9.14,9.14,0,0,1,.58,7.91c-1.7,4.73.94,8.57,6,8.63a10.13,10.13,0,0,1,7.67,3.46A8,8,0,0,0,294.93,47.15Z"/><path d="M304.22,26.2a9.64,9.64,0,0,1-9.68,9.63A9.76,9.76,0,0,1,285.06,26a9.42,9.42,0,0,1,9.6-9.35A9.32,9.32,0,0,1,304.22,26.2Z"/></svg>