<svg xmlns="http://www.w3.org/2000/svg" xmlns:xlink="http://www.w3.org/1999/xlink" version="1.1" id="Capa_1" x="0px" y="0px" viewBox="0 0 512 512" style="enable-background:new 0 0 512 512;" xml:space="preserve">
	<style type="text/css">
		.st0{fill:#898989;}
	</style>
	<g>
		<path class="st0" d="M256.3,121.5" />
		<path class="st0" d="M256.3,101.7c-63.9,0-115.9,52-115.9,115.9c0,88.2,106.4,149.2,111,151.7c1.5,0.9,3.2,1.3,4.8,1.3   c1.7,0,3.3-0.4,4.8-1.3c4.5-2.6,111-63.5,111-151.7C372,153.7,320.1,101.7,256.3,101.7z M256.3,267.1c-28.5,0-51.6-23.2-51.6-51.6   s23.2-51.6,51.6-51.6s51.6,23.2,51.6,51.6S284.7,267.1,256.3,267.1z" />
		<path class="st0" d="M256.3,183.6" />
		<path class="st0" d="M256,306.1c-77.3,0-139.9,23.3-139.9,52.1c0,28.8,62.6,52.1,139.9,52.1s139.9-23.3,139.9-52.1   C395.9,329.4,333.3,306.1,256,306.1z M256,389.2c-64,0-115.9-13.9-115.9-31.1c0-17.2,51.9-31.1,115.9-31.1s115.9,13.9,115.9,31.1   C371.9,375.3,320,389.2,256,389.2z" />
	</g>
</svg>
