<svg xmlns="http://www.w3.org/2000/svg" xmlns:xlink="http://www.w3.org/1999/xlink" version="1.1" id="Capa_1" x="0px" y="0px" viewBox="-49 141 512 512" style="enable-background:new -49 141 512 512;" xml:space="preserve">
<g>
	<g>
		<defs>
			<rect id="SVGID_1_" x="32.214" y="218.002" width="349.572" height="357.996"/>
		</defs>
		<clipPath id="SVGID_2_">
			<use xlink:href="#SVGID_1_" style="overflow:visible;"/>
		</clipPath>
		<path style="clip-path:url(#SVGID_2_);fill:#659C35;" d="M333.351,273.369c-1.746,0-3.527-0.658-4.861-1.992    c-2.817-2.676-2.878-7.125-0.21-9.906c7.3-7.572,11.178-16.075,9.871-21.629c-0.825-3.598-4.045-6.405-9.564-8.432    c-3.633-1.334-5.484-5.344-4.177-9.011c1.333-3.632,5.379-5.484,9.011-4.185c12.784,4.668,17.066,12.617,18.409,18.444    c2.395,10.389-2.606,23.27-13.434,34.553C337.019,272.614,335.203,273.369,333.351,273.369L333.351,273.369z M333.351,273.369"/>
		<path style="clip-path:url(#SVGID_2_);fill:#D13834;" d="M255.689,325.225c-0.965,3.255-1.922,6.748-2.817,10.696    C228.304,444.154,137.954,501.222,36.057,557.677c-4.668,2.571-5.282,10.555-0.728,9.871    c65.641-9.871,237.014,6.756,320.818-189.641c0,0,43.258-90.245-12.029-105.161C344.118,272.746,267.684,236.858,255.689,325.225    L255.689,325.225z M255.689,325.225"/>
	</g>
	<path style="fill:#88C057;" d="M373.143,341.405c6.273-28.315,6.036-62.246-26.938-71.16c0,0-74.653-34.992-92.579,44.319   c17.488-1.298,40.898-4.835,47.443-14.223c0,0,15.522,15.487,7.538,37.599c0,0,32.904-3.773,30.096-30.096   c0,0,20.216,17.417,15.048,45.144C353.716,352.988,363.483,350.039,373.143,341.405L373.143,341.405z M373.143,341.405"/>
	<path style="fill:#F75B57;" d="M134.181,540.672c-2.983,0-5.721-1.913-6.686-4.861c-1.193-3.703,0.825-7.643,4.528-8.845   c152.008-48.978,168.767-152.973,168.942-154.035c0.544-3.835,4.115-6.546,7.95-5.923c3.843,0.544,6.475,4.107,5.931,7.95   c-0.685,4.624-18.268,113.725-178.541,165.371C135.585,540.576,134.866,540.672,134.181,540.672L134.181,540.672z M134.181,540.672   "/>
</g>
</svg>
